<svg width="105" height="100" viewBox="0 0 105 100" fill="none" xmlns="http://www.w3.org/2000/svg">
<path d="M36.6321 73.7016C36.0958 73.6656 35.4854 73.8025 34.9491 73.8339C33.5062 73.9147 32.0566 73.9327 30.6115 73.8923C26.5723 73.7734 22.4276 73.2146 18.7115 71.6887C14.6162 70.0057 11.432 67.0122 10.4154 62.9079C9.47072 59.1021 10.5478 55.3097 12.1635 51.8068C13.9453 47.9404 16.1937 44.3321 18.5993 40.7731C23.9759 32.8181 30.7528 26.1332 37.7384 19.3922L46.2701 11.168C46.2701 11.168 20.5426 41.5271 19.2433 55.2379C17.9441 68.9488 22.7462 72.7927 36.6321 73.7016Z" fill="#52A5E4"/>
<path d="M13.3438 46.4295C7.50936 41.0865 1.75799 34.0381 0.559693 26.3277C-0.0753598 22.2391 1.28002 18.6353 5.24517 16.5596C8.49448 14.8586 12.3138 14.264 15.9558 13.7389C28.3943 11.9414 41.5441 12.5002 53.9871 14.0126C57.0838 14.3896 60.1693 14.8586 63.2279 15.4443C66.3538 16.0412 69.4887 16.7481 72.471 17.8117C69.087 17.2754 65.6604 16.9253 62.2428 16.6246C54.7433 15.9649 47.1766 15.6889 39.6524 16.0771C31.9376 16.4788 23.8233 17.4661 16.8287 20.6863C12.6257 22.6206 9.5918 25.4929 8.94328 29.9002C8.4137 33.4838 9.23725 37.1505 10.5231 40.5255C11.2972 42.5563 12.2622 44.5221 13.3438 46.4295Z" fill="#DFECF3"/>
<path d="M57.961 63.4807C57.934 63.474 57.9049 63.4673 57.8779 63.4583C58.2998 63.5907 62.4781 58.1266 62.9673 57.5543C64.7244 55.4854 66.4567 53.4007 68.1442 51.2846C71.4945 47.0749 74.672 42.7327 77.4389 38.1729C81.716 31.1155 85.4724 23.1359 85.8135 14.9408C86.2084 5.44863 77.0866 2.17912 68.2228 1.16708C68.2228 1.16708 98.5527 -1.98798 93.8336 19.449C93.8336 19.449 92.7721 26.4143 83.2127 38.1662C76.1082 46.8976 67.2713 54.6326 59.3904 62.7784C59.0111 63.1666 58.4973 63.5929 57.961 63.4807Z" fill="#52A5E4"/>
<path d="M31.8748 56.8759C40.2539 58.1101 48.7295 58.8999 57.2118 59.1423C65.8759 59.3891 74.9731 59.3151 83.2624 56.6739C89.7543 54.6072 95.3912 50.3413 95.84 43.6452C96.2125 38.0644 93.3873 32.2928 89.4648 28.1504C92.2945 30.4684 94.8639 33.1209 97.1864 35.8698C100.837 40.1939 105.756 46.715 104.114 52.4888C101.616 61.2674 87.6225 62.2256 79.6002 62.4814C63.946 62.984 48.3929 60.5201 33.0933 57.7488C32.5413 57.6478 31.8479 57.3942 31.8748 56.8759Z" fill="#DFECF3"/>
<path d="M14.5155 95.39L13.6763 94.4924H16.7191C17.5494 94.4924 18.1733 94.3129 18.5884 93.9561C19.0125 93.5993 19.2257 93.1011 19.2257 92.4638C19.2257 91.8175 19.0125 91.3194 18.5884 90.9716C18.1733 90.6237 17.5494 90.451 16.7191 90.451H13.6763L14.5155 89.5242V95.39ZM19.2683 98.9961L16.7034 95.3159H18.7163L21.2947 98.9961H19.2683ZM12.6328 98.9961V88.8555H16.8044C17.702 88.8555 18.4695 89.0013 19.1068 89.2908C19.753 89.5803 20.2512 89.9954 20.599 90.5362C20.9468 91.077 21.1196 91.7188 21.1196 92.4638C21.1196 93.2088 20.9468 93.8506 20.599 94.3914C20.2512 94.9232 19.753 95.3339 19.1068 95.6234C18.4695 95.9039 17.702 96.043 16.8044 96.043H13.6763L14.5155 95.188V98.9984H12.6328V98.9961Z" fill="#52A5E4"/>
<path d="M28.8769 97.4163H34.5991V98.9961H26.9941V88.8555H34.3971V90.4352H28.8769V97.4163ZM28.7332 93.0719H33.7733V94.6225H28.7332V93.0719Z" fill="#52A5E4"/>
<path d="M40.4648 98.9961V88.8555H42.3498V97.4029H47.6501V98.9961H40.4648Z" fill="#52A5E4"/>
<path d="M54.0116 98.9961V90.4487H50.6523V88.8555H59.2558V90.4487H55.8966V98.9961H54.0116Z" fill="#52A5E4"/>
<path d="M66.3202 88.8555V98.9961H64.4375V88.8555H66.3202Z" fill="#52A5E4"/>
<path d="M72.8281 98.9961V88.8555H74.3787L78.8129 96.2584H78.0005L82.3606 88.8555H83.9112L83.9247 98.9961H82.143L82.1295 91.6515H82.5065L78.7972 97.836H77.9579L74.1902 91.6515H74.6256V98.9961H72.8281Z" fill="#52A5E4"/>
<path d="M92.3144 97.4163H98.0366V98.9961H90.4316V88.8555H97.8346V90.4352H92.3144V97.4163ZM92.1685 93.0719H97.2085V94.6225H92.1685V93.0719Z" fill="#52A5E4"/>
<path d="M98.7282 77.6668V75.535H97.8867V75.0391H100.176V75.535H99.3363V77.6668H98.7282Z" fill="#52A5E4"/>
<path d="M101.479 77.6668V75.0391H101.982L103.102 76.8926H102.835L103.934 75.0391H104.433L104.442 77.6668H103.872L103.867 75.912H103.973L103.093 77.3885H102.819L101.922 75.912H102.049V77.6668H101.479Z" fill="#52A5E4"/>
</svg>
